<svg width="32" height="32" viewBox="0 0 32 32" fill="none" xmlns="http://www.w3.org/2000/svg">
  <defs>
    <linearGradient id="smartskatt-grad" x1="16" y1="2" x2="16" y2="31" gradientUnits="userSpaceOnUse">
      <stop stopColor="#2DCC70" />
      <stop offset="1" stopColor="#27AE60" />
    </linearGradient>
  </defs>
  <path d="M16 2L29 7V16C29 23.5 23.5 28.5 16 31C8.5 28.5 3 23.5 3 16V7L16 2Z" fill="url(#smartskatt-grad)" />
  <path d="M11 24H18C19.6569 24 21 22.6569 21 21C21 19.3431 19.6569 18 18 18H14C12.3431 18 11 16.6569 11 15C11 13.3431 12.3431 12 14 12H17L21 8" stroke="white" strokeWidth="2.5" strokeLinecap="round" strokeLinejoin="round" />
  <path d="M17 8H21V12" stroke="white" strokeWidth="2.5" strokeLinecap="round" strokeLinejoin="round" />
</svg>
